<svg width="22" height="21" viewBox="0 0 22 21" fill="none" xmlns="http://www.w3.org/2000/svg">
<path fill-rule="evenodd" clip-rule="evenodd" d="M14.5319 14.49C12.9892 15.8174 10.9468 16.625 8.70833 16.625C3.90225 16.625 0 12.9001 0 8.3125C0 3.72487 3.90225 0 8.70833 0C13.5144 0 17.4167 3.72487 17.4167 8.3125C17.4167 10.4492 16.5706 12.3987 15.18 13.8714L22 20.3814L21.3519 21L14.5319 14.49V14.49ZM8.70833 0.875C13.0084 0.875 16.5 4.20788 16.5 8.3125C16.5 12.4171 13.0084 15.75 8.70833 15.75C4.40825 15.75 0.916667 12.4171 0.916667 8.3125C0.916667 4.20788 4.40825 0.875 8.70833 0.875V0.875Z" fill="#C2E0EB"/>
</svg>
