<svg width="300" height="232" viewBox="0 0 300 232" fill="none" xmlns="http://www.w3.org/2000/svg">
<g filter="url(#filter0_i_105_12)">
<path d="M283.605 42.8143C283.968 40.7622 284.157 38.6512 284.157 36.4966C284.157 16.3401 267.606 0 247.19 0C232.012 0 218.971 9.03061 213.278 21.9464C208.666 18.015 202.681 15.6414 196.14 15.6414C181.557 15.6414 169.736 27.4425 169.736 42C169.736 42.8106 169.772 43.6127 169.844 44.4047C162.83 47.7966 158 54.9139 158 63.1448C158 74.6628 167.458 84 179.124 84H278.876C290.542 84 300 74.6628 300 63.1448C300 53.232 292.995 44.9344 283.605 42.8143Z" fill="url(#paint0_linear_105_12)"/>
</g>
<g filter="url(#filter1_i_105_12)">
<path d="M248 109C248 168.094 200.542 216 142 216C83.4578 216 36 168.094 36 109C36 49.9055 83.4578 2 142 2C200.542 2 248 49.9055 248 109Z" fill="url(#paint1_linear_105_12)"/>
</g>
<g filter="url(#filter2_i_105_12)">
<path d="M125.605 190.814C125.968 188.762 126.157 186.651 126.157 184.497C126.157 164.34 109.606 148 89.1901 148C74.0123 148 60.9709 157.031 55.2777 169.946C50.6656 166.015 44.6807 163.641 38.1405 163.641C23.5574 163.641 11.7355 175.443 11.7355 190C11.7355 190.811 11.7722 191.613 11.8439 192.405C4.82975 195.797 -4.64916e-06 202.914 -4.64916e-06 211.145C-4.64916e-06 222.663 9.45752 232 21.124 232H120.876C132.542 232 142 222.663 142 211.145C142 201.232 134.995 192.934 125.605 190.814Z" fill="url(#paint2_linear_105_12)"/>
</g>
<defs>
<filter id="filter0_i_105_12" x="158" y="0" width="142" height="94" filterUnits="userSpaceOnUse" color-interpolation-filters="sRGB">
<feFlood flood-opacity="0" result="BackgroundImageFix"/>
<feBlend mode="normal" in="SourceGraphic" in2="BackgroundImageFix" result="shape"/>
<feColorMatrix in="SourceAlpha" type="matrix" values="0 0 0 0 0 0 0 0 0 0 0 0 0 0 0 0 0 0 127 0" result="hardAlpha"/>
<feOffset dy="11"/>
<feGaussianBlur stdDeviation="5"/>
<feComposite in2="hardAlpha" operator="arithmetic" k2="-1" k3="1"/>
<feColorMatrix type="matrix" values="0 0 0 0 1 0 0 0 0 1 0 0 0 0 1 0 0 0 1 0"/>
<feBlend mode="normal" in2="shape" result="effect1_innerShadow_105_12"/>
</filter>
<filter id="filter1_i_105_12" x="36" y="2" width="212" height="219" filterUnits="userSpaceOnUse" color-interpolation-filters="sRGB">
<feFlood flood-opacity="0" result="BackgroundImageFix"/>
<feBlend mode="normal" in="SourceGraphic" in2="BackgroundImageFix" result="shape"/>
<feColorMatrix in="SourceAlpha" type="matrix" values="0 0 0 0 0 0 0 0 0 0 0 0 0 0 0 0 0 0 127 0" result="hardAlpha"/>
<feOffset dy="5"/>
<feGaussianBlur stdDeviation="9"/>
<feComposite in2="hardAlpha" operator="arithmetic" k2="-1" k3="1"/>
<feColorMatrix type="matrix" values="0 0 0 0 1 0 0 0 0 1 0 0 0 0 1 0 0 0 0.81 0"/>
<feBlend mode="normal" in2="shape" result="effect1_innerShadow_105_12"/>
</filter>
<filter id="filter2_i_105_12" x="0" y="148" width="142" height="94" filterUnits="userSpaceOnUse" color-interpolation-filters="sRGB">
<feFlood flood-opacity="0" result="BackgroundImageFix"/>
<feBlend mode="normal" in="SourceGraphic" in2="BackgroundImageFix" result="shape"/>
<feColorMatrix in="SourceAlpha" type="matrix" values="0 0 0 0 0 0 0 0 0 0 0 0 0 0 0 0 0 0 127 0" result="hardAlpha"/>
<feOffset dy="11"/>
<feGaussianBlur stdDeviation="5"/>
<feComposite in2="hardAlpha" operator="arithmetic" k2="-1" k3="1"/>
<feColorMatrix type="matrix" values="0 0 0 0 1 0 0 0 0 1 0 0 0 0 1 0 0 0 1 0"/>
<feBlend mode="normal" in2="shape" result="effect1_innerShadow_105_12"/>
</filter>
<linearGradient id="paint0_linear_105_12" x1="167.032" y1="76.5" x2="309.923" y2="-30.7335" gradientUnits="userSpaceOnUse">
<stop stop-color="white"/>
<stop offset="1" stop-color="white" stop-opacity="0.58"/>
</linearGradient>
<linearGradient id="paint1_linear_105_12" x1="125.899" y1="167.241" x2="214.356" y2="13.5502" gradientUnits="userSpaceOnUse">
<stop stop-color="#FF9900"/>
<stop offset="1" stop-color="#FFEE94"/>
</linearGradient>
<linearGradient id="paint2_linear_105_12" x1="9.0318" y1="224.5" x2="151.923" y2="117.267" gradientUnits="userSpaceOnUse">
<stop stop-color="white"/>
<stop offset="1" stop-color="white" stop-opacity="0.58"/>
</linearGradient>
</defs>
</svg>
