<svg width="18" height="20" viewBox="0 0 18 20" fill="none" xmlns="http://www.w3.org/2000/svg">
<g filter="url(#filter0_di_119_127)">
<path d="M9.23616 3.03939L5.77515 6.5004C5.09072 7.1849 4.62463 8.05699 4.43582 9.00639C4.24701 9.95579 4.34396 10.9399 4.71442 11.8342C5.08487 12.7284 5.7122 13.4928 6.51706 14.0306C7.32192 14.5684 8.26817 14.8554 9.23616 14.8554C10.2041 14.8554 11.1504 14.5684 11.9553 14.0306C12.7601 13.4928 13.3874 12.7284 13.7579 11.8342C14.1284 10.9399 14.2253 9.95579 14.0365 9.00639C13.8477 8.05699 13.3816 7.1849 12.6972 6.5004L9.23616 3.03939ZM9.23616 1.06207L13.6858 5.51174C14.5659 6.3918 15.1652 7.51305 15.408 8.73372C15.6508 9.95439 15.5262 11.2196 15.0499 12.3695C14.5736 13.5193 13.767 14.5021 12.7322 15.1936C11.6974 15.885 10.4807 16.2541 9.23616 16.2541C7.99158 16.2541 6.77494 15.885 5.74011 15.1936C4.70528 14.5021 3.89872 13.5193 3.42244 12.3695C2.94615 11.2196 2.82153 9.95439 3.06433 8.73372C3.30713 7.51305 3.90645 6.3918 4.7865 5.51174L9.23616 1.06207V1.06207Z" fill="white"/>
</g>
<defs>
<filter id="filter0_di_119_127" x="-1.41659" y="0.87146" width="19.0431" height="19.7972" filterUnits="userSpaceOnUse" color-interpolation-filters="sRGB">
<feFlood flood-opacity="0" result="BackgroundImageFix"/>
<feColorMatrix in="SourceAlpha" type="matrix" values="0 0 0 0 0 0 0 0 0 0 0 0 0 0 0 0 0 0 127 0" result="hardAlpha"/>
<feOffset dx="-1.50827" dy="2.26241"/>
<feGaussianBlur stdDeviation="0.377069"/>
<feColorMatrix type="matrix" values="0 0 0 0 0 0 0 0 0 0 0 0 0 0 0 0 0 0 0.1 0"/>
<feBlend mode="normal" in2="BackgroundImageFix" result="effect1_dropShadow_119_127"/>
<feBlend mode="normal" in="SourceGraphic" in2="effect1_dropShadow_119_127" result="shape"/>
<feColorMatrix in="SourceAlpha" type="matrix" values="0 0 0 0 0 0 0 0 0 0 0 0 0 0 0 0 0 0 127 0" result="hardAlpha"/>
<feOffset dx="-0.754137" dy="0.754137"/>
<feGaussianBlur stdDeviation="0.754137"/>
<feComposite in2="hardAlpha" operator="arithmetic" k2="-1" k3="1"/>
<feColorMatrix type="matrix" values="0 0 0 0 1 0 0 0 0 1 0 0 0 0 1 0 0 0 0.25 0"/>
<feBlend mode="normal" in2="shape" result="effect2_innerShadow_119_127"/>
</filter>
</defs>
</svg>
