<svg width="19" height="19" viewBox="0 0 19 19" fill="none" xmlns="http://www.w3.org/2000/svg">
<g filter="url(#filter0_di_119_124)">
<path d="M9.18734 11.9931H4.64259V10.5947H9.18734C9.63395 10.5948 10.072 10.7172 10.454 10.9485C10.8361 11.1799 11.1475 11.5113 11.3546 11.907C11.5617 12.3027 11.6566 12.7475 11.629 13.1933C11.6013 13.639 11.4522 14.0687 11.1978 14.4358C10.9435 14.8029 10.5935 15.0933 10.1858 15.2757C9.77811 15.4581 9.3283 15.5254 8.88509 15.4704C8.44189 15.4154 8.02218 15.2402 7.67145 14.9637C7.32072 14.6872 7.05234 14.32 6.89539 13.9019L8.20498 13.4103C8.27222 13.5895 8.38723 13.7469 8.53753 13.8654C8.68784 13.9839 8.8677 14.0591 9.05765 14.0826C9.2476 14.1062 9.44038 14.0774 9.6151 13.9992C9.78983 13.9211 9.93984 13.7966 10.0489 13.6393C10.1579 13.482 10.2218 13.2979 10.2337 13.1068C10.2455 12.9158 10.2049 12.7251 10.1161 12.5556C10.0274 12.386 9.89393 12.2439 9.7302 12.1448C9.56648 12.0456 9.37875 11.9931 9.18734 11.9931ZM5.34178 7.7979H14.7809C15.2275 7.79806 15.6655 7.92044 16.0476 8.15176C16.4296 8.38309 16.741 8.71456 16.9481 9.11024C17.1553 9.50592 17.2501 9.95074 17.2225 10.3965C17.1949 10.8422 17.0458 11.2719 16.7914 11.639C16.537 12.0061 16.187 12.2965 15.7793 12.4789C15.3717 12.6613 14.9218 12.7286 14.4786 12.6736C14.0354 12.6186 13.6157 12.4434 13.265 12.1669C12.9143 11.8904 12.6459 11.5232 12.4889 11.1051L13.7985 10.6136C13.8658 10.7928 13.9808 10.9501 14.1311 11.0687C14.2814 11.1872 14.4612 11.2623 14.6512 11.2859C14.8411 11.3095 15.0339 11.2806 15.2086 11.2025C15.3834 11.1243 15.5334 10.9999 15.6424 10.8425C15.7515 10.6852 15.8154 10.5011 15.8272 10.31C15.8391 10.119 15.7984 9.92837 15.7097 9.75878C15.6209 9.5892 15.4875 9.44713 15.3237 9.34798C15.16 9.24883 14.9723 9.19637 14.7809 9.19629H5.34178C4.78547 9.19629 4.25194 8.97529 3.85857 8.58192C3.4652 8.18855 3.2442 7.65502 3.2442 7.09871C3.2442 6.5424 3.4652 6.00887 3.85857 5.6155C4.25194 5.22212 4.78547 5.00113 5.34178 5.00113H11.2849C11.4763 5.00105 11.6641 4.94859 11.8278 4.84944C11.9915 4.75029 12.125 4.60822 12.2137 4.43864C12.3025 4.26905 12.3431 4.07841 12.3313 3.88737C12.3194 3.69633 12.2555 3.51218 12.1465 3.35487C12.0374 3.19756 11.8874 3.07309 11.7127 2.99494C11.538 2.9168 11.3452 2.88796 11.1552 2.91155C10.9653 2.93514 10.7854 3.01026 10.6351 3.12877C10.4848 3.24728 10.3698 3.40466 10.3026 3.58387L8.99297 3.09303C9.19466 2.55662 9.57817 2.10797 10.0767 1.82526C10.5752 1.54256 11.1571 1.44372 11.721 1.54596C12.2848 1.64821 12.795 1.94506 13.1625 2.38479C13.53 2.82452 13.7316 3.37926 13.7321 3.95234C13.7321 4.60137 13.4743 5.22382 13.0153 5.68276C12.5564 6.14169 11.934 6.39952 11.2849 6.39952H5.34178C5.15634 6.39952 4.9785 6.47318 4.84738 6.60431C4.71625 6.73543 4.64259 6.91327 4.64259 7.09871C4.64259 7.28415 4.71625 7.46199 4.84738 7.59311C4.9785 7.72424 5.15634 7.7979 5.34178 7.7979Z" fill="white"/>
</g>
<defs>
<filter id="filter0_di_119_124" x="-0.416587" y="0.107025" width="19.0431" height="19.7972" filterUnits="userSpaceOnUse" color-interpolation-filters="sRGB">
<feFlood flood-opacity="0" result="BackgroundImageFix"/>
<feColorMatrix in="SourceAlpha" type="matrix" values="0 0 0 0 0 0 0 0 0 0 0 0 0 0 0 0 0 0 127 0" result="hardAlpha"/>
<feOffset dx="-1.50827" dy="2.26241"/>
<feGaussianBlur stdDeviation="0.377069"/>
<feColorMatrix type="matrix" values="0 0 0 0 0 0 0 0 0 0 0 0 0 0 0 0 0 0 0.1 0"/>
<feBlend mode="normal" in2="BackgroundImageFix" result="effect1_dropShadow_119_124"/>
<feBlend mode="normal" in="SourceGraphic" in2="effect1_dropShadow_119_124" result="shape"/>
<feColorMatrix in="SourceAlpha" type="matrix" values="0 0 0 0 0 0 0 0 0 0 0 0 0 0 0 0 0 0 127 0" result="hardAlpha"/>
<feOffset dx="-0.754137" dy="0.754137"/>
<feGaussianBlur stdDeviation="0.754137"/>
<feComposite in2="hardAlpha" operator="arithmetic" k2="-1" k3="1"/>
<feColorMatrix type="matrix" values="0 0 0 0 1 0 0 0 0 1 0 0 0 0 1 0 0 0 0.25 0"/>
<feBlend mode="normal" in2="shape" result="effect2_innerShadow_119_124"/>
</filter>
</defs>
</svg>
